inDegrees=no
num_controls=7
num_derivatives=13
num_iterations=114
num_multipliers=7
num_parameters=0
num_slacks=7
num_states=26
objective=0.516858
objective_accelerations=0.040160
objective_balance=0.002232
objective_effort=0.044165
objective_height=0.418680
objective_ligament=0.011620
solver_duration=1505.905611
status=Solve_Succeeded
success=true
DataType=double
version=3
OpenSimVersion=4.5
endheader
time	/jointset/ground_pelvis/pelvis_tilt/value	/jointset/ground_pelvis/pelvis_tx/value	/jointset/ground_pelvis/pelvis_ty/value	/jointset/hip_l/hip_flexion_l/value	/jointset/hip_l/hip_adduction_l/value	/jointset/hip_l/hip_rotation_l/value	/jointset/back/lumbar_extension/value	/jointset/patellofemoral_l/patellar_flexion_l/value	/jointset/knee_l/knee_flexion_l/value	/jointset/knee_l/knee_adduction_l/value	/jointset/knee_l/knee_rotation_l/value	/jointset/ankle_l/ankle_angle_l/value	/jointset/subtalar_l/subtalar_angle_l/value	/jointset/ground_pelvis/pelvis_tilt/speed	/jointset/ground_pelvis/pelvis_tx/speed	/jointset/ground_pelvis/pelvis_ty/speed	/jointset/hip_l/hip_flexion_l/speed	/jointset/hip_l/hip_adduction_l/speed	/jointset/hip_l/hip_rotation_l/speed	/jointset/back/lumbar_extension/speed	/jointset/patellofemoral_l/patellar_flexion_l/speed	/jointset/knee_l/knee_flexion_l/speed	/jointset/knee_l/knee_adduction_l/speed	/jointset/knee_l/knee_rotation_l/speed	/jointset/ankle_l/ankle_angle_l/speed	/jointset/subtalar_l/subtalar_angle_l/speed	/forceset/tau_hip_flexion_l	/forceset/tau_hip_adduction_l	/forceset/tau_hip_rotation_l	/forceset/tau_knee_flexion_l	/forceset/tau_ankle_angle_l	/forceset/tau_subtalar_angle_l	/forceset/tau_lumbar_extension	lambda_cid13_p0	lambda_cid13_p1	lambda_cid13_p2	lambda_cid13_p3	lambda_cid13_p4	lambda_cid13_p5	lambda_cid14_p0	/jointset/ground_pelvis/pelvis_tilt/accel	/jointset/ground_pelvis/pelvis_tx/accel	/jointset/ground_pelvis/pelvis_ty/accel	/jointset/hip_l/hip_flexion_l/accel	/jointset/hip_l/hip_adduction_l/accel	/jointset/hip_l/hip_rotation_l/accel	/jointset/back/lumbar_extension/accel	/jointset/patellofemoral_l/patellar_flexion_l/accel	/jointset/knee_l/knee_flexion_l/accel	/jointset/knee_l/knee_adduction_l/accel	/jointset/knee_l/knee_rotation_l/accel	/jointset/ankle_l/ankle_angle_l/accel	/jointset/subtalar_l/subtalar_angle_l/accel	gamma_cid13_p0	gamma_cid13_p1	gamma_cid13_p2	gamma_cid13_p3	gamma_cid13_p4	gamma_cid13_p5	gamma_cid14_p0
1.5	-0.01730925527886858	-0.02726480054290997	0.8677997916685599	0.638296300890515	-0.3127118874494915	-0.1771973033469185	-0.7853459592428129	0.6407248727160501	0.6407248727160489	-0.1084664586327033	-0.1744384715046178	0.06813511912203682	0.004765516781623604	0.3946542244631916	0.2816999522080181	0.3471055086882846	-1.882319245438638	0.09393282478446116	-0.5380443930685094	0.8395961048654014	-1.644041849630025	-1.64404184963001	-0.1259098654488296	-0.0005834817979628831	-0.2450404937842086	0.0230723185429315	-0.2067601028146561	0.02651297850935041	-0.00394776640220516	-0.1906709190965338	0.1021599370007947	0.03544312431325933	0.2818207194767797	-10.18258198272119	-15.59931005981417	4.304859818046933	-8.804623886405611	-673.0087846832425	-70.8354019281019	-19.88642318536482	0.001109544053861167	0.6392283099290473	-0.5042149532859431	-0.6436484507923885	0.3224270217749035	-0.2230654512366878	1.766400278705635	-0.6303008319309574	-0.6303008319309489	-0.2904990119328911	0.0276632884754183	0.03729821324182142	0.3447122256267725	-5.546095852423595e-10	1.008340921483104e-06	1.542552246196416e-07	1.583760934137885e-07	7.867845237483496e-08	1.390145482667411e-07	9.840214197695609e-08
1.51	-0.01336311353746372	-0.02441609630915022	0.8712449813590959	0.6194429365646735	-0.311756907076907	-0.1825899483026381	-0.7768627743919259	0.6242549946676733	0.6242549946676632	-0.109740068167869	-0.1744446338908482	0.06568692545145591	0.005013076279317247	0.3945206257123659	0.2880118984945362	0.3418681609667478	-1.888123536611706	0.09705353797964136	-0.5404236407499128	0.8569369270516596	-1.649718831853544	-1.649718831853531	-0.128815722374484	-0.0006431680894099409	-0.2445475661969987	0.02644360344035607	-0.1993408877633878	0.0256188136993537	-0.003908979406554627	-0.1880154232510398	0.1016786263978447	0.03462296554483648	0.274947842871812	-10.14723087961828	-15.30756455172339	4.324894250942215	-8.605018734412555	-669.3299338354522	-70.83204701518626	-20.36425695184581	-0.02862913398269307	0.6228618866754376	-0.5431205278459103	-0.5143190890302803	0.3052636964260704	-0.2361324870245892	1.702332449460988	-0.5041766058081233	-0.5041766058084169	-0.2909859884704292	-0.02189581316968361	0.06291845886909693	0.3337501755506505	-9.684002325837666e-09	1.037306207349292e-06	1.861527965168813e-07	1.644171869548679e-07	7.434173152702874e-08	1.390854223722649e-07	9.588315046015322e-08
1.52	-0.00941991469343316	-0.02150513579279301	0.874635872403165	0.6005384293994084	-0.3107710455267576	-0.1880045413472663	-0.7682092994670013	0.6077347908594019	0.6077347908594037	-0.1110428076634013	-0.1744512153850475	0.0632451867422285	0.005294431336735321	0.3940656449882732	0.2941512087275124	0.3362457793948879	-1.892547813323423	0.1001090602962834	-0.5424340108486143	0.8736541196729284	-1.654107001606895	-1.654107001606884	-0.1317358575236884	-0.0006673033894519448	-0.2437495015134468	0.02983143048779444	-0.1919216727121274	0.02472464888934014	-0.003870192410757999	-0.1853599274055559	0.1011973157948895	0.03380280677639295	0.2680749662668429	-10.11784132095651	-15.01468695417825	4.344647314402167	-8.408538602359428	-665.7517335778344	-70.84633395551008	-20.81845574924166	-0.06316685059963517	0.6047010992207226	-0.5812217233505367	-0.3676455585220682	0.3093888460672637	-0.1492899346963105	1.641674365707718	-0.3725383378974769	-0.3725383378974779	-0.2933546566429325	0.0347734867564599	0.09832563251030703	0.3480206556295697	-8.884158930613618e-09	1.033591077686574e-06	1.67690943820666e-07	1.608310064956733e-07	7.910414789938723e-08	1.44102614268106e-07	9.658731902701442e-08
1.53	-0.005482892494776989	-0.01853371450662932	0.8779686667760435	0.5815966246165639	-0.3097549751092341	-0.1934372761385671	-0.7593919125998455	0.5911771494179735	0.5911771494179759	-0.1123748936664105	-0.1744577491041318	0.06081292126683924	0.005609716776132923	0.3932828660229966	0.3000967135281553	0.3302538535245104	-1.895573450551186	0.1030953238538126	-0.5440666056576449	0.8897045438940159	-1.657200479233697	-1.657200479233699	-0.1346687515394029	-0.0006444452477990774	-0.2426538504509574	0.03322994158210896	-0.1843954008951659	0.02368444059787368	-0.003885283159390629	-0.1827730872036149	0.1006999054093383	0.03299554707515318	0.2610914511108314	-10.10025750945765	-14.72424389089008	4.363531555103267	-8.151620238783735	-662.2515219228642	-70.89341740191659	-21.24617295357341	-0.09423000031442989	0.5840528481178692	-0.6170440153551606	-0.2340774288789284	0.2916450697527598	-0.1632067065283435	1.568919970598394	-0.2446519437000458	-0.2446519437020307	-0.2911943702269026	-0.01472067276859628	0.1226709470274713	0.3362484076585606	2.465497858918373e-09	9.951530065243956e-07	9.572220249390534e-08	1.470158474111877e-07	9.353439756817064e-08	1.543752688161592e-07	1.007160951827687e-07
